<?xml version="1.0" encoding="utf-8"?>
<!-- Generator: Adobe Illustrator 24.1.0, SVG Export Plug-In . SVG Version: 6.00 Build 0)  -->
<svg version="1.1" id="Layer_1" xmlns="http://www.w3.org/2000/svg" xmlns:xlink="http://www.w3.org/1999/xlink" x="0px" y="0px"
	 viewBox="0 0 110 120" style="enable-background:new 0 0 110 120;" xml:space="preserve">
<style type="text/css">
	.st0{fill:#00A1E3;}
</style>
<g>
	<path class="st0" d="M96.4,97.9H82.8V87.1C75.4,93.7,65.7,97.9,55,97.9c-23,0-41.6-18.4-41.6-41.4S32,15,54.8,15
		s41.4,18.6,41.4,41.4v41.4H96.4z M55.2,0.3C24.8,0.3,0,25.1,0,55.6s24.5,55.2,55.2,55.2c8.3,0,16.2-2,23.2-5l3.7,1.5l27.8,11.4
		V55.3C109.8,25.1,85.2,0.3,55.2,0.3z"/>
	<path class="st0" d="M54.8,28.2c-15.6,0-28.3,12.5-28.3,28.3s12.7,28.3,28.3,28.3S83,72.2,83,56.4S70.6,28.2,54.8,28.2"/>
</g>
</svg>
