<?xml version="1.0" encoding="utf-8"?>
<!-- Generator: Adobe Illustrator 24.1.0, SVG Export Plug-In . SVG Version: 6.00 Build 0)  -->
<svg version="1.1" id="Layer_1" xmlns="http://www.w3.org/2000/svg" xmlns:xlink="http://www.w3.org/1999/xlink" x="0px" y="0px"
	 viewBox="0 0 98 120" style="enable-background:new 0 0 98 120;" xml:space="preserve">
<style type="text/css">
	.st0{fill-rule:evenodd;clip-rule:evenodd;}
</style>
<path class="st0" d="M81.7,63.7c-0.1-15.2,12.4-22.5,12.9-22.8c-5-7.2-13.2-11.6-21.9-11.9c-9.3-1-18.2,5.5-22.9,5.5
	S37.7,29.1,30,29.3c-10.4,0.3-19.8,6-24.8,15.1C-5.4,62.8,2.5,90,12.8,104.8c5,7.3,11.1,15.5,18.9,15.2s10.5-4.9,19.7-4.9
	s11.8,4.8,19.8,4.7c8.1-0.2,13.3-7.4,18.4-14.7c3.6-5.3,6.4-11,8.3-17.1C88.1,83.9,81.8,74.3,81.7,63.7 M66.6,19.1
	C71.2,13.8,73.4,7,72.9,0C66,0.6,59.6,3.9,55.1,9.1c-4.5,5.1-6.8,11.8-6.4,18.6c6.7,0.5,13.6-3.4,17.8-8.5"/>
</svg>
