<svg version="1.1" id="svg8" xmlns="http://www.w3.org/2000/svg" x="0" y="0" viewBox="0 0 187.5 192.1" xml:space="preserve">
  <style>
    .st5{fill:#4a4a4a}
  </style>
  <g id="layer1" transform="translate(-30.892836 -129.55305)">
    <g id="g911" transform="matrix(.26458 0 0 .26458 22.719106 145.1202)">
      <g id="g868" transform="matrix(1.97439 0 0 1.97439 -30.101536 -192.27609)">
        <circle id="path826" cx="56.2" cy="311.3" r="25.3" fill="#6e217f"/>
        <circle id="circle828" cx="122.9" cy="131.1" r="25.3" fill="#b90066"/>
        <circle id="circle830" cx="214.5" cy="92.9" r="25.3" fill="#d5006c"/>
        <circle id="circle832" transform="rotate(-80.781 300.90771295 131.11609496)" cx="300.9" cy="131.1" fill="#e62633" r="13.2"/>
        <circle id="circle834" cx="364.5" cy="203.9" r="25.3" fill="#eb6408"/>
      </g>
      <g id="g900">
        <path id="circle836" class="st5" d="M645.2 435.2c-40.5 0-73.3 37.7-73.3 84.3 0 46.6 32.8 84.3 73.3 84.3 16.3 0 32-6.3 44.9-17.8v81.2h29.5V469.1h-15.8c-13.8-21.3-35.5-33.8-58.6-33.9zm1.8 25c25.4 0 46.1 26.7 46.1 59.7s-20.6 59.7-46.1 59.7c-25.4 0-46.1-26.7-46.1-59.7s20.6-59.7 46.1-59.7z"/>
        <path id="path843" class="st5" d="M405.5 371.8V570h16.9c13.8 21.3 35.5 33.9 58.6 33.9 40.5 0 73.3-37.7 73.3-84.3 0-46.6-32.8-84.3-73.3-84.3-16.7 0-33 6.6-46 18.7v-82.2h-29.5zm73.8 88.4c25.4 0 46.1 26.7 46.1 59.7s-20.6 59.7-46.1 59.7c-25.4 0-46.1-26.7-46.1-59.7s20.7-59.7 46.1-59.7z"/>
      </g>
    </g>
  </g>
</svg>
