<svg xmlns="http://www.w3.org/2000/svg" viewBox="0 0 86 30">
  <path d="M45.2 21.8c-2.8 0-5.1-2.3-5.1-5.2-.1-2.9 2.2-5.3 5.1-5.4 2.8.1 5.1 2.4 5.1 5.2 0 2.9-2.2 5.3-5.1 5.4zm-.1-12c-3.7 0-6.7 3-6.7 6.7s3 6.7 6.7 6.7 6.7-3 6.7-6.7-2.9-6.7-6.6-6.7h-.1zM32.2 23.1h1.7v-7.6c0-.9.3-1.9.8-2.6.7-.8 1.7-1.2 2.8-1.3V9.8c-1.4.1-2.9.4-3.6 2.2v-2h-1.7v13.1zm-9.3-1.3c-2.8 0-5.1-2.3-5.1-5.2-.1-2.9 2.2-5.3 5.1-5.4 2.8.1 5.1 2.4 5.1 5.2 0 3.4-2.6 5.4-5.1 5.4zm0-12c-3.7 0-6.7 3-6.7 6.7s3 6.7 6.7 6.7 6.7-3 6.7-6.7-3-6.7-6.7-6.7zm-16 12c-2.9.1-5.2-2.2-5.3-5.1v-.2c-.1-2.8 2.1-5.2 4.9-5.3h.4c2.9.1 5.2 2.5 5.2 5.4-.1 2.9-2.4 5.2-5.2 5.2zm6.6-16.3h-1.6v6.7c-1.2-1.6-3.1-2.6-5.1-2.5-4.2.1-7 3.4-7 6.9 0 3.7 3.1 6.8 6.8 6.7h.2c2 0 3.9-.9 5.1-2.5v2.3h1.7V5.5h-.1zm45.8 3.8c2.2-.8 5.1-1.3 6.5-1.6.4 0 .8-.2 1-.6 1.5-2.5 4.3-3.9 7.2-3.6 2.6.2 5 1.6 6.5 3.7.3.3.7.6 1.1.7.9.2 1.7.4 2.5.7.5.1.7.1.6-.2C81 1.3 72.2-1.7 65 2c-2.8 1.4-5.1 3.8-6.6 6.6-.2.7-.1 1.1.9.7zm26.3 7.5c-1.1-.6-2.3-1-3.5-1.2-.3 0-.6.1-.7.4-1.5 2.7-4.4 4.2-7.5 4-2.7-.2-5.2-1.6-6.7-3.9-.3-.5-.9-.7-1.4-.6-1.7.2-5.1.8-7.3 1.9l-.1.1c-.7.4-1 .7-.7 1.8C60 27 68 31.4 75.8 29.2c5.3-1.5 9.2-5.9 10.2-11.3 0-.7-.1-1-.4-1.1zm-15.9-6c0-2.3 1.8-4.1 4.1-4.1h.5c2.5.2 4.6 2.4 4.6 4.8 0 2.3-1.8 4.1-4.1 4.1h-.5c-2.5-.2-4.5-2.3-4.6-4.8z" fill="#008545"/>
</svg>
