<svg version="1.1" id="Layer_1" xmlns="http://www.w3.org/2000/svg" x="0" y="0" viewBox="0 0 100 14" xml:space="preserve">
  <style>
    .st0{fill:#2ba6de}
  </style>
  <path class="st0" d="M13.6 8.5l1.6-3.8c.2 1.3.5 2.5.8 3.8h-2.4zm.5-8.1c-2.1 4.3-4 8.8-5.8 13.1H11c.4 0 .7-.3.9-.6.2-.6.4-1.1.6-1.7h4c.1.6.3 1.1.4 1.7.1.4.4.6.8.6h2.8C19.3 9.2 18.2 4.7 17.4.4h-3.3zm8 13.1h3.2c.3-4.3.7-8.7 1.3-13.1h-3.2c-.6 4.4-1 8.8-1.3 13.1m13.5-8.4c-.1 1-.8 1.7-1.9 1.7h-1.6l.4-3.4h1.6c1 0 1.6.6 1.5 1.7m3.3-.1c0-.1 0-.1 0 0 .2-1.4-.1-2.4-.7-3.1C37.5 1 36.3.6 34.6.6h-5.9l-.4 2.9h.9c-.4 3.4-.7 6.7-.9 10.2h3.2l.3-4H33c.5 1.2 1.1 2.4 1.6 3.5.1.3.4.5.8.5h3.1c-.8-1.6-1.5-3.1-2.2-4.7 1.3-.9 2.4-2.1 2.6-4m8.7.2c-.1 1.1-.9 1.8-2 1.8h-1.1l.4-3.6H46c1.2 0 1.8.6 1.6 1.8m-1-4.7h-5.4l-.4 2.9h.9c-.4 3.4-.7 6.7-.9 10.2H44l.3-3.8h1.2c2.8 0 5.1-1.5 5.4-4.6V5c.4-2.9-1.3-4.5-4.3-4.5M59.2 5.4h-3.6l.6-4.9H53c-.6 4.3-1.1 8.7-1.3 13.1h3.2c.1-1.7.2-3.3.4-5h3.6c-.2 1.7-.3 3.3-.4 5h3.3c.3-4.3.7-8.7 1.3-13.1h-3.3l-.6 4.9M84.4 7L80.9.3l-3 .5c-.6 4.2-1 8.6-1.3 12.8h3.2c.1-2.3.3-4.5.6-6.8 1.1 2.1 2.3 4.3 3.6 6.4.1.2.4.4.7.4h2.4c.3-4.3.7-8.7 1.3-13.1h-3.2L84.4 7M4 5.8l.3-2.3h5.9l.4-3H.5l-.4 3H1C.6 6.8.3 10.1.1 13.6h3.2c.1-1.6.2-3.2.4-4.8h3.5c.5 0 .9-.4 1-.9.1-.7.1-1.3.2-2 .1-.1-4.4-.1-4.4-.1zm89.3 4.8c.1-.7.1-1.5.2-2.2h3.6c.5 0 .9-.4 1-.9.1-.6.1-1.2.2-1.8h-4.4l.3-2.1h5.5l.4-2.9h-9.9l-.4 2.9h.9c-.4 3.3-.7 6.7-.9 10.1h8.9c.1-1 .1-1.9.2-2.9h-5.6v-.2zM72.1 7.3v.2c-.2 2.2-1.2 3.2-2.7 3.2S67 9.3 67.2 7.1v-.2c.2-2.2 1.4-3.6 2.9-3.6.7 0 1.3.3 1.7.9l-.5.4c.4.7.9 1.5.8 2.7m1.7-5l.4-.4C73.3.9 72 .3 70.5.3c-3.4 0-6.3 2.7-6.7 6.6v.3c-.4 3.9 1.9 6.6 5.3 6.6s5.9-2.4 6.3-6.2v-.3c.4-2.2-.6-3.8-1.6-5"/>
</svg>
