<svg xmlns="http://www.w3.org/2000/svg" viewBox="0 0 233 238">
  <path d="M119.2 48.8c16.8 0 31.9 6 43.8 15.7l34.6-34.6C176.5 11.4 149.5 0 119.2 0c-47 0-87.5 26.9-106.8 66.3l40.1 30.6c9.3-28 35.6-48.1 66.7-48.1z" fill="#ea4335"/>
  <path d="M119.2 189.4c-31.2 0-57.5-20.2-66.8-48.3l-40 30.6C31.7 211.1 72.2 238 119.2 238c29 0 56.8-10.3 77.6-29.6l-38-29.4c-10.7 6.8-24.3 10.4-39.6 10.4z" fill="#34a853"/>
  <path d="M232.8 119c0-7-1.1-14.6-2.7-21.6H119.2v46H183c-3.2 15.7-11.8 27.7-24.2 35.6l37.9 29.4c21.9-20.3 36.1-50.6 36.1-89.4z" fill="#4285f4"/>
  <path d="M48.9 119.1c0-7.8 1.3-15.2 3.6-22.2L12.4 66.3C4.6 82.1.2 100 .2 119s4.4 36.9 12.2 52.7l40-30.6c-2.2-6.9-3.5-14.4-3.5-22z" fill="#fbbc05"/>
</svg>
