<svg version="1.1" id="Layer_1" xmlns="http://www.w3.org/2000/svg" x="0" y="0" viewBox="0 0 428.8 81.2" xml:space="preserve">
  <style>
    .st0{fill-rule:evenodd;clip-rule:evenodd}
  </style>
  <g id="图层_x0020_1">
    <path class="st0" d="M122.1 0c22.4 0 40.6 18.2 40.6 40.6s-18.2 40.6-40.6 40.6c-22.4 0-40.6-18.2-40.6-40.6S99.7 0 122.1 0zm0 14.1c14.7 0 26.5 11.9 26.5 26.5s-11.9 26.5-26.5 26.5-26.5-11.8-26.5-26.5 11.8-26.5 26.5-26.5z"/>
    <polygon points="61.5,81.2 46.1,81.2 46.1,47.4 15.4,47.4 15.4,81.2 0,81.2 0,1.3 15.4,1.3 15.4,32 46.1,32 46.1,1.2 61.5,1.3"/>
    <path d="M244.3 81.2h-11.8l-34.1-50.4v50.4h-15V1.5h12l34.4 47.8-.5-48h14.9c.1 0 .1 79.9.1 79.9zM366.5 1.3h33.6c8 0 14.8 5.2 17.4 8.2 2.2 2.6 6 9 6 16.2 0 4.1-.5 10.6-3.3 15.2-2.6 4.3-7.9 9.2-13.9 10.7l22.5 29.7h-18l-30-34.9v34.9h-14.3v-80zm15.4 13.8v23.5H395c9.1 0 13.4-5.5 13.5-11.9.1-5.8-5.9-11.6-12-11.6h-14.6z"/>
    <path class="st0" d="M305.6 0c22.4 0 40.6 18.2 40.6 40.6S328 81.2 305.6 81.2C283.2 81.2 265 63 265 40.6S283.2 0 305.6 0zm0 14.1c14.7 0 26.5 11.9 26.5 26.5s-11.9 26.5-26.5 26.5c-14.7 0-26.5-11.9-26.5-26.5s11.8-26.5 26.5-26.5z"/>
  </g>
</svg>
