<svg xmlns="http://www.w3.org/2000/svg" width="246.22205" height="81.736473">
  <path d="M225.74636 69.089146c-13.0282.08455-25.36693.188618-28.80774-.117084-6.95965-.604903-11.61027-5.157944-12.15012-11.857419-.36423-4.396937-.36423-8.039371-.0195-11.506186.63091-6.523858 6.08807-12.735507 12.16962-13.034707 2.17896-.117085 8.00686-.104065 18.5634-.05853l30.72002.05853V19.831739s-24.46934-.02602-31.82574-.05853c-9.87361-.04553-14.84293-.05204-17.99104.05853-6.92711.266677-12.72899 2.731825-17.2365 7.310884-4.27336 4.325388-6.82307 11.206984-7.20032 18.173138-.21464 3.759511-.28617 8.670291 0 11.590742.70898 7.493005 3.13511 13.372932 7.20032 17.490184 4.3449 4.422954 10.95982 7.226326 17.24301 7.310882 5.15794.06504 49.81027 0 49.81027 0V68.972062s-13.56156.05204-20.47567.117084M87.067222 20.5147v12.729003h30.310258v48.242724h12.79405V33.243703h30.31023V20.5147H87.067222zM73.778854 44.587281c-.091102-6.855579-2.510682-12.735507-7.200304-17.490184-4.891279-4.975823-12.351753-7.044205-17.236521-7.304378-4.247343-.240662-20.983015-.162616-24.911635 0-5.535195.234156-9.567899 1.886259-11.590752 3.395266-.01945.0131-.0391.0065-.0391-.02602V0H0v81.707571h12.781031s-.253661-33.445339.03255-37.087772c.507321-6.471823 5.418111-11.55822 11.681796-12.104585 5.021345-.429287 20.091928-.312208 24.820571.0065 6.491344.448798 11.285049 5.522189 11.662304 12.358253.123653 2.517183-.0058 36.8276-.0058 36.8276h12.807052s.03255-34.18033 0-37.120294" fill="#8cc751"/>
</svg>
