<svg version="1.1" id="Layer_1" xmlns="http://www.w3.org/2000/svg" x="0" y="0" viewBox="0 0 59 60" xml:space="preserve">
  <style>
    .st0{fill:#cf0a2c}.st1{fill:#231815}.st2{fill:none}
  </style>
  <path id="u" class="st0" d="M31.1 33c.2.1.3-.1.3-.1 1.8-2.5 9.5-14 11.1-21 0 0 .8-3.4 0-5.7 0 0-1.1-4.4-6-5.6 0 0-1.3-.3-2.8-.5 0 0-5.4 6.8-2.8 32.7.1.2.2.2.2.2"/>
  <path id="a" class="st1" d="M6.6 53.9H2v-4H0v9.9h2v-4h4.6v4h2v-9.9h-2v4z"/>
  <path id="c" class="st1" d="M17.9 55.5c0 1.7-.8 2.5-2.3 2.5s-2.3-.9-2.3-2.5v-5.6h-2v5.7c0 2.8 1.6 4.4 4.2 4.4s4.2-1.7 4.2-4.5v-5.6h-2c.2 0 .2 5.6.2 5.6z"/>
  <path class="st2" d="M17.9 55.5c0 1.7-.8 2.5-2.3 2.5s-2.3-.9-2.3-2.5v-5.6h-2v5.7c0 2.8 1.6 4.4 4.2 4.4s4.2-1.7 4.2-4.5v-5.6h-2c.2 0 .2 5.6.2 5.6z"/>
  <polygon points="41,56.7 38.8,49.8 37.2,49.8 34.9,56.7 32.7,49.8 30.5,49.8 34.1,59.8 35.7,59.8 37.9,53.3 40.2,59.8 41.8,59.8 45.3,49.8 43.2,49.8"/>
  <polygon points="48.9,55.5 52.5,55.5 52.5,53.7 48.9,53.7 48.9,51.7 54.2,51.7 54.2,49.8 46.9,49.8 46.9,59.8 54.4,59.8 54.4,57.9 48.9,57.9"/>
  <path id="i" class="st1" d="M56.8 49.8h2v9.8h-2v-9.8z"/>
  <rect x="56.8" y="49.8" class="st2" width="2" height="9.8"/>
  <path id="k" d="M26.1 52.3l1.5 3.3.1.2h-3l.1-.2c-.1 0 1.3-3.3 1.3-3.3zm2.3 5.4l.9 2.1h2.1L27 49.9v-.1h-1.8l-4.4 9.8H23l.8-1.9.1-.1c0 .1 4.5.1 4.5.1z"/>
  <path class="st2" d="M26.1 52.3l1.5 3.3.1.2h-3l.1-.2c-.1 0 1.3-3.3 1.3-3.3zm2.3 5.4l.9 2.1h2.1L27 49.9v-.1h-1.8l-4.4 9.8H23l.8-1.9.1-.1c0 .1 4.5.1 4.5.1z"/>
  <path id="m_1_" class="st0" d="M25.3 34.2c-7-15-16.4-26.4-16.4-26.4s-5.2 4.9-4.8 9.7c.2 3.7 3 5.9 3 5.9 4.5 4.4 15.3 9.8 17.8 11.1.1.1.3 0 .4-.1 0 0 .1-.1 0-.2z"/>
  <path id="o" class="st0" d="M23.6 38.1c0-.2-.2-.2-.2-.2l-18 .6c2 3.5 5.3 6.2 8.7 5.4 2.4-.6 7.8-4.4 9.5-5.6v-.2"/>
  <path class="st0" d="M23.9 36.5c.1-.2-.1-.3-.1-.3C15.8 30.9.5 22.7.5 22.7c-1.4 4.3.5 7.8.5 7.8 2 4.1 5.7 5.4 5.7 5.4 1.8.7 3.4.7 3.4.7h13.6c.1 0 .2-.1.2-.1"/>
  <path id="s" class="st0" d="M25 0c-.8.1-2.9.5-2.9.5-4.8 1.2-5.9 5.6-5.9 5.6-.8 2.7 0 5.7 0 5.7 1.6 7 9.4 18.7 11.1 21.1.1.1.2.1.2.1.2 0 .2-.2.2-.2C30.3 6.8 25 0 25 0"/>
  <path id="w" class="st0" d="M35.3 38s-.2 0-.2.1c0 0 0 .2.1.2 1.8 1.2 6.9 4.9 9.5 5.6 0 0 4.7 1.6 8.7-5.4L35.3 38z"/>
  <g>
    <path id="y" class="st0" d="M58.2 22.7s-15.3 8.2-23.3 13.6c0 0-.1.1-.1.3 0 0 .1.1.2.1h13.9s1.3-.1 3.1-.7c0 0 3.8-1.2 5.8-5.6 0 0 1.8-3.6.4-7.7"/>
  </g>
  <g>
    <path id="A" class="st0" d="M33.4 34.4s.1.1.2 0c2.6-1.2 13.4-6.7 17.8-11.1 0 0 2.8-2.3 3-5.9.3-5.1-4.8-9.7-4.8-9.7S40.3 19.1 33.4 34c0 .1-.1.3 0 .4"/>
  </g>
</svg>
