<svg xmlns="http://www.w3.org/2000/svg" width="500" height="105" viewBox="0 0 499.99996 105">
  <g fill="#e60012">
    <path d="M209.96731689 23.32962195c-8.93826456 0-19.10359694 4.14345504-25.3145772 12.43876968l.00420228-.01680915-.00420229.0042023.00420229-11.12345384h-21.31820222v77.63305102h21.31399993v-44.1744415c0-7.9507271 6.1647551-16.40152637 17.57816675-16.40152637 8.82060052 0 17.947968 6.1353391 17.947968 16.40152637v44.1744415h21.31820222V54.14079063c0-17.85551769-12.77495264-30.81116868-31.52975976-30.81116868M393.00969998 24.63568963l-19.27168843 52.88158028-19.27168843-52.88158028h-24.35225347l31.9415839 77.6078373h23.36051372l31.9415839-77.6078373h-24.3480512zM99.6967806 48.0226765c3.63077602-4.87465299 9.413123-7.73641047 16.39732409-7.73641047 7.68178073 0 13.51035287 4.38718768 16.5233927 10.86291203l-37.24487016 15.4518095C94.35567376 58.67127189 96.3853784 52.4686962 99.6967806 48.0226765m40.95548962 30.37413082c-8.97188286 6.63961354-14.09867307 8.22387576-22.28052596 8.22387576-7.36240692 0-13.12794475-2.28604416-17.19155633-6.295026l54.4994608-22.60830435c-1.18924725-8.42558554-4.3871877-15.95188166-9.30806583-21.67539662-7.16069714-8.31632608-17.75886509-12.71612063-30.66408863-12.71612063-23.44035718 0-41.11517653 17.29241123-41.11517653 40.13184136 0 23.43195261 17.71684222 40.12763908 43.464255 40.12763908 14.42645145 0 29.176479-6.83712104 36.07663435-14.82566873l-13.48093687-10.36283987zM72.56051235 82.69112345H24.10814263V1.41468955H2.4999826v100.85068699h70.06052975v-19.5742531zM455.63679475 41.5935961c-11.90507922 0-20.54918369 9.0223103-20.54918369 21.85609497 0 12.25386904 9.1567835 21.85609496 20.83493921 21.85609496 11.90928151 0 20.5491837-9.27024524 20.5491837-21.85609496 0-12.25386905-9.1525812-21.85609497-20.83493922-21.85609497m0 61.97953175c-23.31428857 0-41.5816304-17.36805239-41.5816304-40.12343678 0-22.49904489 18.39341044-40.12343679 41.86738592-40.12343679 23.31428857 0 41.5774281 17.3680524 41.5774281 40.12343679 0 22.4948426-18.38920814 40.12343678-41.86318362 40.12343678M291.50806546 41.5935961c-11.90507922 0-20.5449814 9.0223103-20.5449814 21.85609497 0 12.25386904 9.1525812 21.85609496 20.8349392 21.85609496 11.90507923 0 20.54498141-9.27024524 20.54498141-21.85609496 0-12.25386905-9.1525812-21.85609497-20.8349392-21.85609497m0 61.97953175c-23.31428858 0-41.57742811-17.36805239-41.57742811-40.12343678 0-22.49904489 18.38920814-40.12343679 41.8673859-40.12343679 23.3100863 0 41.57742811 17.3680524 41.57742811 40.12343679 0 22.4948426-18.39341043 40.12343678-41.8673859 40.12343678"/>
  </g>
</svg>
