<svg xmlns="http://www.w3.org/2000/svg" viewBox="0 0 387.6 69.6">
  <path d="M1.97312 37.94273l.4-31.3 3-3 3-3 42.2-.2c41.3-.2 42.3-.2 44.9 1.4 1.5.9 3.3 3 4.1 5 1.4 3.1 1.5 5.5 1.5 32.9v29.6h-14.2v-27.7c0-24.1-.2-27.9-1.2-29-1-1-3.5-1.2-14.3-1.2h-13v58h-13.5v-58h-13.4c-11.9 0-13.5.2-14.7 1.5-1.2 1.3-1.3 4.5-1.3 29v27.4h-13.8l.3-31.4zm119.2 29.8c-1.4-.9-3.3-2.7-4.2-4.2-1.5-2.4-1.6-4-1.6-28.8s.1-26.3 1.6-28.8c.9-1.4 2.7-3.3 4.2-4.2 2.5-1.5 4.1-1.6 33.7-1.6h31.1v11.2h-54.6l-1.2 1.8c-.9 1.3-1.2 3.7-1.2 8.7v7l27.1.2 27.1.2v11.2l-27.1.2-27.1.1v7c0 5 .3 7.4 1.2 8.7l1.2 1.8h54.6v11.1h-31.1c-29.6 0-31.2-.1-33.7-1.6zm80-32.9v-34.5h14.2v69h-14.2v-34.5zm30.4 33.3c-2.7-1.9-3.8-5.4-2.7-8.7.9-2.8 3.9-5.6 32.1-30.5 6.1-5.4 13.1-11.6 15.4-13.7l4.2-3.9h-50.1v-11.2h63.6l2.3 2.3c2.8 2.8 3.1 6.8.7 9.9-.9 1.1-10.6 10-21.6 19.7-11 9.7-21.9 19.5-24.3 21.8l-4.4 4.1h51.2V69.34273h-32.4c-27.1 0-32.6-.2-34-1.2zm84.5-.6c-5.4-3.6-5.5-3.9-5.5-37.3v-30h13.4v27.4c0 26.3.1 27.4 1.6 29 1.5 1.5 2.6 1.6 22.9 1.6 19.6 0 21.4-.1 22.6-1.5 1.2-1.3 1.3-4.5 1.3-29v-27.5h13.4v30.7c0 29.3-.1 30.8-1.6 33.2-3.1 5-3.8 5.1-36.3 5.1-28.9.1-29.1.1-31.8-1.7z" fill="#21bbef"/>
</svg>
