<?xml version="1.0" encoding="utf-8"?>
<!-- Generator: Adobe Illustrator 24.1.0, SVG Export Plug-In . SVG Version: 6.00 Build 0)  -->
<svg version="1.1" id="Layer_1" xmlns="http://www.w3.org/2000/svg" xmlns:xlink="http://www.w3.org/1999/xlink" x="0px" y="0px"
	 viewBox="0 0 238 211" style="enable-background:new 0 0 238 211;" xml:space="preserve">
<style type="text/css">
	.st0{fill:#FF0000;}
</style>
<path class="st0" d="M119.2,0C74,0,37.5,36.6,37.5,81.7s36.6,81.7,81.7,81.7s81.7-36.6,81.7-81.7C200.8,36.5,164.3,0,119.2,0z
	 M169,122.9c0,0-4-17.9-10.4-28.6c-3.5-5.8-8.9-10.6-16.1-10.4c-5.1,0-9.5,2.9-15,10.6c-3.2,5.2-6,10.7-8.4,16.4c0,0-2-4.6-4.3-9.1
	c-1.2-2.5-2.6-4.9-4.1-7.1c-5.5-7.7-9.9-10.5-15-10.6c-7.1-0.1-12.6,4.6-16.1,10.4c-6.5,10.7-10.4,28.6-10.4,28.6h-5.9L94.7,20
	l24.2,80.4l0.2,0.1l0.2-0.1L143.5,20l31.4,102.9H169z"/>
<path d="M119.2,178.8c-9.1,0-16.4,7.4-16.4,16.4s7.4,16.4,16.4,16.4s16.4-7.4,16.4-16.4C135.7,186.1,128.3,178.8,119.2,178.8z
	 M119.2,205.5c-5.7,0-10.3-4.6-10.3-10.3s4.6-10.3,10.3-10.3c5.7,0,10.3,4.6,10.3,10.3S124.9,205.5,119.2,205.5z M92.5,198.8v-13.9
	h7.9v-6.1h-7.9v-8.2h-6.2v28.2c0,7.1,5.8,12.9,12.9,12.8h1.3v-6.2h-1.3C95.5,205.5,92.5,202.5,92.5,198.8z M174.3,178.8
	c-9.1,0-16.4,7.4-16.4,16.4s7.4,16.4,16.4,16.4s16.4-7.4,16.4-16.4C190.7,186.1,183.4,178.8,174.3,178.8z M174.3,205.5
	c-5.7,0-10.3-4.6-10.3-10.3s4.6-10.3,10.3-10.3s10.3,4.6,10.3,10.3S180,205.5,174.3,205.5z M221.6,178.8c-9.1,0-16.5,7.3-16.5,16.4
	c0,9.1,7.3,16.4,16.4,16.5c3.9,0,7.6-1.4,10.6-3.8v3.4h5.9v-15.5v-0.5C238,186.2,230.7,178.8,221.6,178.8z M221.6,205.5
	c-5.7,0-10.3-4.6-10.3-10.3s4.6-10.3,10.3-10.3s10.3,4.6,10.3,10.3S227.3,205.5,221.6,205.5z M139.8,191.6v19.6h6.1v-19.6
	c0-3.7,3-6.7,6.7-6.7h2.9v-6.1h-2.9C145.5,178.8,139.8,184.5,139.8,191.6z M194.9,170.6h6.2v40.6h-6.2V170.6z M32.4,178.8
	c-3.8,0-7.3,1.6-9.8,4.5c-4.6-5.4-12.7-6-18.1-1.5c-2.9,2.4-4.5,6-4.5,9.8v19.6h6.2v-19.6c-0.1-3.7,2.7-6.8,6.4-7s6.8,2.7,7,6.4
	v20.1h6.2v-19.6c-0.1-3.7,2.7-6.8,6.4-7c3.7-0.2,6.8,2.7,7,6.4V211h6.1v-19.6C45.2,184.5,39.5,178.8,32.4,178.8L32.4,178.8z
	 M65.8,178.8c-9.1,0-16.5,7.3-16.5,16.4c0,9.1,7.3,16.5,16.4,16.5s16.5-7.3,16.5-16.4C82.2,186.2,74.9,178.8,65.8,178.8z
	 M65.8,205.5c-5.7,0-10.3-4.6-10.3-10.3s4.6-10.3,10.3-10.3c5.7,0,10.3,4.6,10.3,10.3S71.5,205.5,65.8,205.5z"/>
</svg>
