<svg x="0" y="0" viewBox="0 0 145 37">
  <path fill="#e34500" d="M144.5 33.2c0 1.9-1.5 3.4-3.4 3.4s-3.4-1.5-3.4-3.4 1.5-3.4 3.4-3.4c1.8 0 3.4 1.5 3.4 3.4M126.4 3.9c-8.1 0-14.7 6.6-14.7 14.7s6.6 14.7 14.7 14.7 14.7-6.6 14.7-14.7-6.6-14.7-14.7-14.7m0 23.6c-4.9 0-8.9-4-8.9-8.9s4-8.9 8.9-8.9 8.9 4 8.9 8.9-4 8.9-8.9 8.9"/>
  <path fill="#717175" d="M70.4 3.9c0 1.9-1.5 3.4-3.4 3.4s-3.4-1.5-3.4-3.4S65.1.5 67 .5s3.4 1.5 3.4 3.4M105.9 4c-2.6 0-4.7 2.1-4.7 4.7v24.4h1.1c2.6 0 4.7-2.1 4.7-4.7V4M60.2 5.2c-2.6 0-4.7 2.1-4.7 4.7v9.3c0 4.5-3.7 8.2-8.2 8.2s-8.2-3.7-8.2-8.2V10c0-2.6-2.1-4.7-4.7-4.7h-1.1v14c0 7.7 6.3 14 14 14s14-6.3 14-14v-14M28.5 17.9c0-7.7-6.3-14-14-14s-14 6.3-14 14v14h1.1c2.6 0 4.7-2.1 4.7-4.7v-9.3c0-4.5 3.7-8.2 8.2-8.2s8.2 3.7 8.2 8.2v9.3c0 2.6 2.1 4.7 4.7 4.7h1.1v-14M81.7 3.9C73.6 3.9 67 10.5 67 18.6s6.6 14.7 14.7 14.7 14.7-6.6 14.7-14.7S89.8 3.9 81.7 3.9m0 23.6c-4.9 0-8.9-4-8.9-8.9s4-8.9 8.9-8.9 8.9 4 8.9 8.9-4 8.9-8.9 8.9"/>
</svg>
