<svg xmlns="http://www.w3.org/2000/svg" viewBox="0 0 254 61">
  <path d="M64.56762 31.236591v-29.1h9v3.8s.6-.3 1.3-.8c8-5 19.7-6.5 30.2-3.9 9.4 2.4 16.3 8 18.7 15.4 1.4 4.3 1.3 9.1-.2 13.3-1.9 5.2-5.9 9.4-11.7 12.2-5 2.5-10.8 3.8-17.2 3.8-5.3 0-10.3-.9-14.7-2.6-1.7-.7-4-1.8-5.3-2.7l-1-.7v20.4h-9v-29.1zm34.6 7c5.1-.7 9.1-2.3 12-4.9 2.3-2 3.8-4.7 4.4-7.6.2-1.2.2-4.1 0-5.3-.7-3.5-2.7-6.5-5.7-8.7-1.2-.9-3.7-2.1-5.2-2.6-4.4-1.5-9.8-1.9-14.7-1.2-8.5 1.3-14.3 5.5-15.8 11.6-.7 2.7-.6 5.6.3 8.2 2 5.8 8.1 9.7 16.6 10.6 1.7.2 6.5.1 8.1-.1zm30.1-7v-29.1h9v3.8s.5-.3 1.1-.7c1.4-.9 4-2.2 5.8-2.8 7.4-2.7 16.5-3.2 24.4-1.2 12.9 3.2 20.5 12.1 19.8 23.1-.5 8.4-6.1 15.3-15.3 18.9-3 1.2-6.1 1.9-9.9 2.4-2 .3-7.5.3-9.6 0-6-.7-11.3-2.5-15.4-5.2l-.9-.6v20.4h-9v-29zm34.8 6.9c7.1-1.1 12.1-3.9 14.7-8.4 1.5-2.6 2.1-6.1 1.5-9.3-1.2-6.7-7.1-11.3-16.1-12.6-5.9-.9-12.7 0-17.2 2.2-4.7 2.3-7.5 5.7-8.4 10.2-.3 1.2-.3 4.3 0 5.4.7 3.1 2.2 5.7 4.5 7.7 3.2 2.7 7.4 4.3 12.8 4.9 1.8.3 6.4.2 8.2-.1zm-137 7.8c-4.8-.4-8.9-1.4-12.4-2.9-8-3.4-13-9.1-14.3-16.4-.3-1.4-.4-4.5-.2-6 1-8.7 7.4-15.6 17.5-18.8 5.4-1.7 12-2.3 17.9-1.5 10.9 1.4 19.1 6.4 22.7 13.9 2.9 6.1 2.6 13.5-1 19.2-1.6 2.6-4.2 5.2-6.9 7-4.2 2.8-9.2 4.5-15.4 5.2-1.2.2-6.8.4-7.9.3zm6.4-7.6c4.7-.5 8.7-1.9 11.7-4 2.5-1.7 4.4-4.3 5.3-6.9.5-1.5.6-2.3.6-4.4 0-2.1-.1-2.8-.6-4.4-1.7-5.1-6.5-8.9-13.3-10.4-6-1.3-12.9-.9-18 1.2-3.7 1.5-6.6 3.9-8.4 6.8-1.8 3.1-2.2 7.4-1.1 11.1 1.3 4 4.6 7.3 9.1 9.1 2.5 1 5.6 1.7 8.6 2 1.2.1 4.9 0 6.1-.1zm187.5 7.6c-.2 0-.9-.1-1.5-.1-5-.5-10.3-2.1-14.2-4.3-5.2-3-8.9-7.2-10.5-12.2-1.1-3.4-1.3-7.2-.5-10.7 1.2-5.3 4.4-9.8 9.4-13.1 6.6-4.4 16.3-6.3 25.7-5.2 7.8 1 14.2 3.8 18.7 8.3 3.4 3.4 5.4 7.4 5.9 12 .1 1.2.1 3.7 0 5-1.2 9.3-8.6 16.4-19.9 19.1-3.4.8-5.6 1.1-9.6 1.1-1.8.1-3.4.1-3.5.1zm5.9-7.6c6-.6 10.9-2.5 14-5.7 2.1-2.1 3.4-4.5 3.8-7.3.2-1.2.2-3.6 0-4.8-1.1-6.5-6.8-11.2-15.3-12.6-2-.3-3.4-.4-5.5-.4-9.5 0-16.9 3.6-19.8 9.6-.8 1.8-1.2 3.6-1.2 5.9 0 2.9.7 5.3 2.2 7.6 2.8 4.2 8.2 7 15.3 7.7 1.5.1 5 .2 6.5 0z" fill="#006b33"/>
</svg>
