<?xml version="1.0" encoding="utf-8"?>
<!-- Generator: Adobe Illustrator 27.1.1, SVG Export Plug-In . SVG Version: 6.00 Build 0)  -->
<svg version="1.1" id="Layer_1" xmlns="http://www.w3.org/2000/svg" xmlns:xlink="http://www.w3.org/1999/xlink" x="0px" y="0px"
	 viewBox="0 0 647.5 270" style="enable-background:new 0 0 647.5 270;" xml:space="preserve">
<style type="text/css">
	.st0{fill:#FFC915;}
	.st1{fill:#676C73;}
</style>
<g transform="translate(346.0712896 -214.23323)">
	<rect x="-346.1" y="214.2" class="st0" width="647.5" height="270"/>
	<path class="st1" d="M-83.9,408.1c-10.2-1.2-18.4-4.9-25-11.4c-8.2-8-12.5-18.9-12.5-31.2c0-24.9,17.9-43.1,42.3-43.1
		c6.4,0,12.8,1.5,18.5,4.3c2.7,1.3,6.2,3.6,8,5.3c0.7,0.6,1.3,1.1,1.4,1.1c0.1,0,0.1-2.1,0.1-4.7v-4.7h10.6v83.3h-10.6v-9.6l-1,0.8
		c-7.1,5.9-13.5,8.7-22.1,9.8C-76,408.3-82.2,408.3-83.9,408.1L-83.9,408.1z M-74.1,397.1C-61.4,395-52.5,386-50,372.5
		c0.6-3.1,0.6-11,0-14c-0.7-3.6-1.6-6.3-3.1-9.4c-4.4-8.9-12.1-14.4-22.4-15.7c-3.6-0.5-8.8-0.2-12.2,0.7
		c-10,2.6-17.6,9.8-21.1,19.8c-1.4,4.2-1.7,6.1-1.7,11.5c0,4.2,0.1,5.1,0.6,7.3c2.9,12.9,12.2,22.1,24.5,24.4
		C-82.9,397.6-76.9,397.6-74.1,397.1L-74.1,397.1z M-176,407.8c-7.1-0.7-13.6-3-19.2-6.7c-3.1-2.1-8-7-10.1-10.2
		c-5.2-7.8-7.7-17.2-7.3-27.6c0.3-9.4,3-17.5,8.1-24.7c0.7-1.1,2.6-3.2,4.2-4.8c5.7-5.7,12.5-9.3,20.7-10.9
		c3.3-0.7,10.7-0.9,14.1-0.5c15.8,2,27.7,12.6,31.8,28.4c1,3.9,1.4,7.1,1.6,11.9l0.2,4.1h-70l0.2,2.5c0.7,10.9,7.1,20.7,16.5,25.5
		c4.5,2.3,8.8,3.2,14.1,3.2c9.2,0,16.2-2.8,22-9c1.4-1.5,4.7-5.9,5.3-7.1c0.1-0.1,9.2,5.8,9.2,6c0,0.6-3.7,5.6-5.8,7.7
		c-7.6,8-17.1,11.9-29.4,12.2C-172,408-174.8,407.9-176,407.8L-176,407.8z M-142.9,356.4c-2-12.5-10.5-21.6-22.6-24
		c-2.5-0.5-9.1-0.4-11.6,0.1c-6.1,1.3-11.1,3.9-15.3,8c-4.4,4.3-7.4,9.6-9,16.3l-0.2,0.7h58.9L-142.9,356.4z M174.6,407.8
		c-18.4-1.7-32-14.2-35.7-32.6c-2.5-12.5-0.2-25.6,6.3-35.3c6.2-9.3,15.1-15,26.5-17.2c3.2-0.6,12.8-0.6,15.9,0
		c7.6,1.5,14,4.9,19.2,10.1c7.6,7.6,11.6,18.2,11.6,30.7v3.2l-34.9,0.1l-34.9,0.1l0.1,1.9c0.3,7.6,3.8,15.5,9.4,20.9
		c4.3,4.2,9.6,6.8,15.8,7.9c2.7,0.5,8.6,0.5,11.4,0c8.5-1.5,14.7-5.7,20-13.6c0.8-1.1,1.5-2,1.6-2c0.3,0.1,8.5,5.3,8.8,5.7
		c0.4,0.4-1.9,3.7-4.5,6.8C202.8,404.3,189.4,409.2,174.6,407.8L174.6,407.8z M207.6,356.8c0-0.4-0.2-1.5-0.5-2.6
		c-2.9-12-11.4-20-23.2-21.9c-4.5-0.7-9.9-0.2-14.4,1.3c-9.8,3.2-17.4,11.4-20,21.5c-0.3,1-0.5,2-0.5,2.1c0,0.2,8.4,0.3,29.3,0.3
		h29.3L207.6,356.8L207.6,356.8z M-263,365.3v-41.8h49.9v9.8l-19.6,0.1l-19.6,0.1l-0.1,36.8l-0.1,36.8H-263L-263,365.3z
		 M-22.1,348.5v-58.3h10.8v116.6h-10.8V348.5z M7.2,365.2v-41.6h10.6l0,5.5l0,5.5l0.9-1.1c2.9-3.6,6-6.1,9.4-7.8
		c4.1-2,7.7-2.9,12.7-3.2c5.9-0.3,10.6,0.6,15.2,2.9c4.9,2.4,8.4,5.9,11.8,11.5c0.2,0.4,0.4,0.3,1.2-1c4.5-6.6,11.3-11,19.7-12.9
		c3.4-0.7,10.7-0.8,14-0.1c5.9,1.2,10.6,3.6,14.5,7.5c4.1,4.1,6.6,9.1,8.2,16.1l0.6,2.9l0.1,28.7l0.1,28.7h-10.6v-25.7
		c0-16-0.1-26.6-0.2-28.1c-1-9.9-6.1-17-14.1-19.6c-3.1-1-6.4-1.4-9.7-1c-10.3,1.1-16.9,6.7-19.2,16.1c-0.5,2-0.5,2.6-0.6,30.2
		l-0.1,28.1H61.2v-25.2c0-15-0.1-26.4-0.2-28.2c-1-12.1-7.6-19.8-18.2-21.1c-9.7-1.2-19.7,4.5-23.4,13.2c-1.5,3.6-1.4,1.7-1.5,32.9
		l-0.1,28.4H7.2L7.2,365.2L7.2,365.2z"/>
</g>
</svg>
