<?xml version="1.0" encoding="utf-8"?>
<!-- Generator: Adobe Illustrator 25.2.1, SVG Export Plug-In . SVG Version: 6.00 Build 0)  -->
<svg version="1.1" id="Layer_1" xmlns="http://www.w3.org/2000/svg" xmlns:xlink="http://www.w3.org/1999/xlink" x="0px" y="0px"
	 viewBox="0 0 90 14" style="enable-background:new 0 0 90 14;" xml:space="preserve">
<path d="M3.5,3.8V3.1c0.1-0.5,0.6-0.9,1.2-0.9c0.6-0.1,1.1,0.4,1.2,1v1h3.2V3.3C9.1,0.5,6.5,0,4.7,0C2.4,0,0.5,0.7,0.2,2.9
	C0.1,3.5,0.1,4,0.2,4.6C0.7,7.2,5.3,7.9,6,9.7c0.1,0.3,0.1,0.6,0,0.9c-0.1,0.6-0.7,0.9-1.2,0.9c-0.6,0.1-1.2-0.4-1.3-1V9.1H0v1
	c0,2.9,2.2,3.8,4.7,3.8c2.3,0,4.2-0.8,4.6-3c0.1-0.7,0.1-1.4,0-2.1C8.7,6.1,3.8,5.3,3.5,3.8z M45.2,3.8V3.1c0.1-0.5,0.6-0.9,1.1-0.8
	c0.6-0.1,1.1,0.4,1.2,1v1h3.2V3.4c0-2.7-2.4-3.2-4.3-3.2c-2.2,0-4.1,0.7-4.5,2.9c-0.1,0.6-0.1,1.1,0,1.7c0.5,2.6,5.1,3.4,5.7,5
	c0.1,0.3,0.1,0.6,0,0.9c-0.1,0.4-0.4,0.8-1.2,0.8c-0.6,0.1-1.2-0.4-1.2-1V9.1h-3.4v1c0,2.9,2.2,3.7,4.6,3.7s4.2-0.8,4.5-3
	c0.1-0.7,0.1-1.4,0-2C50.4,6.1,45.5,5.3,45.2,3.8z M74.3,10.8l-3-10.4h-4.8v12.7h3.2L69.4,2.4l3.3,10.7h4.6V0.4h-3.2
	C74.1,0.4,74.3,10.8,74.3,10.8z M13.7,0.4l-2.3,12.8h3.5l1.8-11.9l1.7,11.9h3.5L19.4,0.4H13.7z M33.2,0.4l-1.6,10.1L29.9,0.4h-5.2
	l-0.3,12.8h3.2l0.1-11.9l2.2,11.9h3.3l2.2-11.9l0.1,11.9h3.3L38.5,0.4H33.2z M63,0.4h-3.3v10c-0.2,0.7-0.9,1.1-1.6,0.9
	c-0.4-0.1-0.7-0.4-0.9-0.9v-10H54v10c0.2,2.4,2.1,3.2,4.5,3.2s4.3-0.8,4.5-3.2V9.6C62.9,9.6,63,0.4,63,0.4z M85.3,6.1v1.8h1.3v2.4
	c-0.2,0.7-1,1.1-1.7,0.8c-0.4-0.1-0.7-0.4-0.8-0.8V4c0-0.2,0-0.4,0.1-0.6c0.2-0.7,1-1.1,1.7-0.9c0.4,0.1,0.7,0.5,0.9,0.9v1.2H90V3.4
	c-0.2-2.4-2.2-3.2-4.5-3.2c-2.2,0-4.2,0.8-4.5,3.2c0,0.2-0.1,0.6-0.1,0.8v5.4c0,0.3,0,0.6,0.1,0.8c0.2,2.3,2.2,3.2,4.5,3.2
	c2.2,0,4.3-0.8,4.5-3.2V6.1H85.3L85.3,6.1z"/>
</svg>
