<?xml version="1.0" encoding="utf-8"?>
<!-- Generator: Adobe Illustrator 24.1.0, SVG Export Plug-In . SVG Version: 6.00 Build 0)  -->
<svg version="1.1" id="Layer_1" xmlns="http://www.w3.org/2000/svg" xmlns:xlink="http://www.w3.org/1999/xlink" x="0px" y="0px"
	 viewBox="0 0 94 17" style="enable-background:new 0 0 94 17;" xml:space="preserve">
<path d="M79.6,13.8c0.2,0,0.3,0,0.5,0c0.2-0.1,0.3-0.2,0.4-0.3c0-0.1,0-0.3,0-0.4v-2.9c0-0.1,0-0.1-0.1-0.3s-5.3-6-5.5-6.3
	c-0.4-0.5-1-0.8-1.6-0.8h-1.8V1h10.1v1.8h-1.2c-0.3,0-0.5,0.3-0.2,0.6l3.4,4.1c0,0,0.1,0.1,0.1,0l3.5-4.1c0.1-0.2,0.1-0.4-0.1-0.5
	c-0.1,0-0.1-0.1-0.2-0.1h-1.3V1H94v1.8h-1.9C91.6,2.7,91,3,90.7,3.5l-5.6,6.4C85,10,85,10.1,85,10.1V13c0,0.1,0,0.3,0,0.4
	c0.1,0.2,0.2,0.3,0.4,0.3c0.2,0,0.3,0,0.5,0h1.9v1.8h-10v-1.8H79.6z M54,1l10.1,9.1L64,3.9c0-0.8-0.2-1.1-1-1.1h-1.9V1h8.7v1.8h-1.9
	c-0.9,0-0.9,0.3-1,1.1L67,15.7h-3L52.5,5.3v7.4c0,0.8,0,1.2,0.9,1.2h2.1v1.8h-8.5v-1.9h2c0.7,0,0.7-0.7,0.7-1.2V4
	c0-0.6-0.1-1.2-1.2-1.2h-1.6V1L54,1z M8.6,0C6.7,0,4.8,0.4,3,1.2C1.3,1.9,0,3.1,0,5c0,1,0.4,2,1.1,2.7c0.9,0.9,2,1.4,3.2,1.6
	C5.2,9.6,7.1,9.9,9,10.1s3.7,0.4,4.5,0.6c0.6,0.2,1.6,0.4,1.6,1.5c0,0.7-0.5,1.3-1.2,1.5c-1.2,0.5-2.5,0.7-3.7,0.7
	c-1.5,0-3-0.3-4.4-0.8c-1-0.3-1.9-0.9-2.6-1.7c-0.3-0.5-0.5-1.1-0.5-1.6H0.5V16h2.3v-0.8c0-0.2,0.1-0.3,0.3-0.3c0.1,0,0.1,0,0.2,0
	c1.1,0.5,2.2,0.8,3.4,1.1c1.1,0.3,2.3,0.4,3.5,0.4c1.6,0,3.2-0.2,4.7-0.7c1-0.3,1.9-0.7,2.8-1.4c0.9-0.7,1.5-1.9,1.4-3.1
	c0-1.1-0.4-2.2-1.2-3c-0.4-0.4-0.9-0.8-1.5-1c-0.6-0.3-1.2-0.5-1.8-0.6C13.3,6.4,10.6,6,9.3,5.9C7.8,5.8,6.3,5.6,4.7,5.3
	c-0.5-0.1-0.8-0.5-0.9-1c0-0.5,0.3-1,0.8-1.2C6,2.4,7.4,2.2,8.9,2.2c1.7,0,3.4,0.3,4.9,1c0.4,0.2,0.8,0.4,1.2,0.7
	c0.6,0.5,1,1.2,1.2,1.9H18v-5h-2.1v0.5c0,0.2-0.2,0.4-0.6,0.2C13.2,0.5,10.9,0,8.6,0L8.6,0z M33.5,16.6c-3.1,0.1-6.2-0.9-8.7-2.9
	c-1.5-1.4-2.4-3.3-2.4-5.4c0-2,0.9-4,2.4-5.4c2-1.8,5.4-2.9,8.7-2.9C37.1,0,40,1,42.2,3c1.5,1.4,2.3,3.3,2.3,5.4c0,2-0.9,4-2.3,5.4
	C39.7,15.7,36.6,16.7,33.5,16.6l0-2.2c1.7,0,3.4-0.6,4.7-1.8c1.1-1.1,1.8-2.7,1.7-4.3c0-1.6-0.6-3.2-1.7-4.3c-2.7-2.4-6.7-2.4-9.3,0
	c-2.3,2.4-2.3,6.2,0,8.6c1.3,1.2,2.9,1.8,4.7,1.8L33.5,16.6L33.5,16.6z"/>
</svg>
