<svg xmlns="http://www.w3.org/2000/svg" version="1.0" width="1024" height="625" viewBox="-1.53982497 -1.53982497 89.19965294 54.40714894">
  <path d="M86.12 51.3275H0V12.73C0 5.73125 5.73 0 12.73125 0H86.12v51.3275" fill="#fe0000"/>
  <path d="M44.3875 16.16125c-3.30626 0-5.63125.73875-7.5625 2.375-1.94499 1.67-3 4.27875-3 6.90625v.15625c-.00001 2.8725.91125 5.03125 2.90625 6.84375 1.865 1.695 4.57125 2.4475 7.59375 2.4375 2.67874 0 5.00125-.61625 6.59375-1.8125 1.75501-1.32625 2.95-3.20125 3.09375-5.65625h-5.40625c-.14876 1.03125-.77375 3.28125-4.25 3.28125-1.41374 0-2.47375-.41125-3.375-1.25-.88124-.82125-1.53125-2.07375-1.53125-3.78125V25.38c0-1.69875.65-2.965 1.53125-3.78125.90126-.845 1.96875-1.21875 3.375-1.21875 3.32251 0 4.0075 1.96125 4.21875 3.25h5.40625c-.1325-2.6025-1.3725-4.43875-3.125-5.65625-1.74375-1.2125-3.77875-1.8125-6.46875-1.8125zm-31.65625.9375V22.005h6.8125v12.1875h6.0625V22.005h6.8125v-4.90625h-19.6875zm44.53125 0V34.1925h15.46875V29.505h-9.625V17.09875H57.2625z" fill="#fff"/>
</svg>
