<?xml version="1.0" encoding="utf-8"?>
<!-- Generator: Adobe Illustrator 24.1.0, SVG Export Plug-In . SVG Version: 6.00 Build 0)  -->
<svg version="1.1" id="New_VF_Logo_AW" xmlns="http://www.w3.org/2000/svg" xmlns:xlink="http://www.w3.org/1999/xlink" x="0px"
	 y="0px" viewBox="0 0 822 666.1" style="enable-background:new 0 0 822 666.1;" xml:space="preserve">
<style type="text/css">
	.st0{fill:#E60000;}
	.st1{fill:#FFFFFF;}
</style>
<g>
	<g id="XMLID_1_">
		<circle id="XMLID_689_" class="st0" cx="393.6" cy="222.7" r="222.7"/>
		<path id="XMLID_688_" class="st1" d="M395.4,346.9c-61.2,0.2-124.9-52-125.2-135.9c-0.2-55.5,29.7-108.9,68-140.5
			c37.3-30.9,88.4-50.7,134.8-50.9c6,0,12.2,0.5,16,1.8c-40.5,8.4-72.8,46.1-72.6,88.9c0,1.4,0.1,2.9,0.3,3.6
			c67.8,16.5,98.6,57.4,98.8,114.1C515.6,284.7,470.9,346.7,395.4,346.9z"/>
	</g>
	<g id="XMLID_763_">
		<path id="XMLID_686_" class="st0" d="M43.6,661.2L0,557.3h28.5l27.2,69l26.3-69h27.2L66.9,661.2H43.6z"/>
		<path id="XMLID_683_" class="st0" d="M211.2,608.8c0,6.8-1,13.4-3.1,19.9c-2.1,6.5-5.2,12.4-9.3,17.6c-4.1,5.2-9.3,9.3-15.5,12.5
			c-6.3,3.2-13.6,4.7-21.9,4.7s-15.6-1.6-21.9-4.7c-6.3-3.2-11.4-7.3-15.5-12.5c-4.1-5.2-7.2-11-9.3-17.6
			c-2.1-6.5-3.1-13.2-3.1-19.9c0-6.8,1-13.4,3.1-19.8c2.1-6.5,5.2-12.3,9.3-17.4c4.1-5.1,9.3-9.2,15.5-12.3
			c6.3-3.1,13.5-4.6,21.9-4.6s15.6,1.5,21.8,4.6c6.2,3.1,11.4,7.2,15.5,12.3c4.2,5.1,7.3,10.9,9.4,17.4
			C210.2,595.4,211.2,602,211.2,608.8z M184.9,608.7c0-4.3-0.5-8.4-1.5-12.3c-1-3.9-2.5-7.2-4.5-10.1c-2-2.8-4.5-5.1-7.3-6.7
			s-6.3-2.5-10.1-2.5c-3.9,0-7.3,0.8-10.1,2.5c-2.9,1.7-5.3,3.9-7.3,6.7c-2,2.8-3.5,6.2-4.5,10.1c-1,3.9-1.5,8-1.5,12.3
			c0,4.5,0.5,8.6,1.5,12.4c1,3.8,2.5,7.2,4.4,10.1s4.4,5.2,7.3,6.8c2.9,1.7,6.4,2.5,10.2,2.5c3.9,0,7.3-0.8,10.1-2.5
			c2.9-1.7,5.3-3.9,7.3-6.8c2-2.9,3.5-6.2,4.5-10.1C184.4,617.3,184.9,613.2,184.9,608.7z"/>
		<path id="XMLID_680_" class="st0" d="M293.7,661.2l-1.1-8c-2.4,2.7-5.7,5.1-9.7,7.2c-4,2.1-8.7,3.1-14.2,3.1
			c-7.2,0-13.5-1.5-18.9-4.5c-5.4-3-10-7-13.8-12.1c-3.7-5-6.6-10.9-8.5-17.5c-1.9-6.6-2.9-13.5-2.9-20.7c0-6.8,1-13.4,3-19.8
			c2-6.5,5.1-12.3,9.1-17.4c4.1-5.1,9.2-9.2,15.4-12.3c6.2-3.1,13.4-4.6,21.7-4.6c5.4,0,11.3,1,17.6,3v-40.3h26.7v143.8H293.7z
			 M291.6,580.1c-5.1-2-9.9-3-14.4-3c-4.6,0-8.5,0.9-11.8,2.6c-3.3,1.7-6,4.1-8.2,7s-3.8,6.3-4.8,10c-1.1,3.7-1.6,7.5-1.6,11.4
			c0,4.3,0.5,8.5,1.4,12.4c0.9,4,2.4,7.4,4.3,10.4c1.9,3,4.4,5.3,7.3,7.1c2.9,1.8,6.4,2.7,10.4,2.7c3.3,0,6.7-0.9,10.1-2.7
			c3.4-1.8,5.9-3.9,7.3-6.4V580.1z"/>
		<path id="XMLID_672_" class="st0" d="M395.7,661.1l-1.1-7.8c-2.9,3.2-6.6,5.7-11,7.5c-4.5,1.8-9.4,2.7-14.7,2.7
			c-4.5,0-8.8-0.8-12.9-2.3c-4.1-1.5-7.8-3.7-10.9-6.5c-3.2-2.8-5.7-6.3-7.7-10.3c-1.9-4.1-2.9-8.7-2.9-13.9s1-9.7,3-13.7
			c2-4,4.8-7.3,8.2-10c3.5-2.7,7.4-5,11.9-6.7c4.5-1.7,9.2-3,14.1-3.9c3.5-0.7,7.3-1.3,11.4-1.6c4.1-0.4,7.5-0.7,10.3-1v-1.5
			c0-5.7-1.5-9.8-4.4-12.3c-3-2.4-7-3.7-12.2-3.7c-3,0-5.9,0.4-8.7,1.1c-2.7,0.7-5.2,1.6-7.4,2.7c-2.2,1.1-4.1,2.2-5.7,3.2
			c-1.7,1.1-3,2-4,2.9l-8.8-18.8c1.1-1,2.9-2.2,5.3-3.7c2.4-1.4,5.2-2.8,8.6-4.2c3.4-1.4,7.2-2.5,11.4-3.5c4.2-0.9,8.8-1.4,13.7-1.4
			c5.7,0,11,0.8,15.7,2.3c4.7,1.5,8.8,3.9,12.3,7.1c3.5,3.2,6.1,7.3,8.1,12.3c1.9,5,2.9,11,2.9,18v66.8H395.7z M393.6,612.5
			c-2.9,0.1-5.9,0.4-8.9,0.8c-3,0.4-5.9,0.8-8.7,1.4c-5.8,1.1-9.8,3.1-12.1,5.9c-2.2,2.8-3.4,5.9-3.4,9.2c0,3.5,1.3,6.2,3.8,8.3
			s6.1,3.1,10.7,3.1c3.5,0,6.8-0.7,10.1-2.2c3.3-1.4,6-3.2,8.4-5.4V612.5z"/>
		<path id="XMLID_670_" class="st0" d="M502.7,541.1c-0.9-0.4-2.6-1-5.1-1.8c-2.5-0.8-5.9-1.2-10-1.2c-3.7,0-6.9,1.1-9.4,3.3
			c-2.5,2.2-3.8,5.9-3.8,10.9v5h22.4v21.6h-22.2v82.4H448v-82.4h-13.8v-21.6H448v-5.6c0-6.8,0.9-12.5,2.6-17.1
			c1.7-4.7,4.1-8.5,7.2-11.4c3.1-2.9,6.7-5.1,10.9-6.5c4.2-1.4,8.7-2.1,13.6-2.1c6.5,0,11.8,0.6,16.1,1.8c4.2,1.2,6.7,2.1,7.4,2.5
			L502.7,541.1z"/>
		<path id="XMLID_667_" class="st0" d="M601.9,608.8c0,6.8-1,13.4-3.1,19.9c-2.1,6.5-5.2,12.4-9.3,17.6c-4.1,5.2-9.3,9.3-15.5,12.5
			c-6.3,3.2-13.6,4.7-21.9,4.7s-15.6-1.6-21.9-4.7c-6.3-3.2-11.4-7.3-15.5-12.5c-4.1-5.2-7.2-11-9.3-17.6
			c-2.1-6.5-3.1-13.2-3.1-19.9c0-6.8,1-13.4,3.1-19.8c2.1-6.5,5.2-12.3,9.3-17.4c4.1-5.1,9.3-9.2,15.5-12.3
			c6.3-3.1,13.5-4.6,21.9-4.6s15.6,1.5,21.8,4.6c6.2,3.1,11.4,7.2,15.5,12.3c4.2,5.1,7.3,10.9,9.4,17.4
			C600.9,595.4,601.9,602,601.9,608.8z M575.6,608.7c0-4.3-0.5-8.4-1.5-12.3c-1-3.9-2.5-7.2-4.5-10.1c-2-2.8-4.5-5.1-7.3-6.7
			c-2.9-1.7-6.3-2.5-10.1-2.5c-3.9,0-7.3,0.8-10.1,2.5c-2.9,1.7-5.3,3.9-7.3,6.7c-2,2.8-3.5,6.2-4.5,10.1c-1,3.9-1.5,8-1.5,12.3
			c0,4.5,0.5,8.6,1.5,12.4c1,3.8,2.5,7.2,4.4,10.1c1.9,2.9,4.4,5.2,7.3,6.8c2.9,1.7,6.4,2.5,10.2,2.5c3.9,0,7.3-0.8,10.1-2.5
			c2.9-1.7,5.3-3.9,7.3-6.8c2-2.9,3.5-6.2,4.5-10.1C575.1,617.3,575.6,613.2,575.6,608.7z"/>
		<path id="XMLID_665_" class="st0" d="M684.9,661.2v-59.3c0-7.9-1.7-14-5-18.3c-3.3-4.3-7.9-6.5-13.8-6.5c-4.2,0-8,1.1-11.5,3.2
			c-3.5,2.2-6.6,4.5-9.2,7.1v73.8h-26.7V557.3h24.4l1.3,8.2c4.2-3.5,8.9-6.1,14.1-8c5.2-1.9,10.5-2.8,15.9-2.8
			c5.5,0,10.5,0.8,15.1,2.5c4.6,1.7,8.6,4.3,11.9,7.9c3.3,3.6,5.9,8.3,7.7,14c1.8,5.8,2.7,12.7,2.7,20.7v61.5H684.9z"/>
		<path id="XMLID_662_" class="st0" d="M754.5,615.9c0.6,8.8,3.3,15.1,8.2,19c4.9,3.9,11.3,5.8,19,5.8c3.6,0,7-0.3,10.2-1
			c3.2-0.6,6-1.5,8.4-2.5c2.5-1,4.5-2,6.3-3c1.7-1,3-1.9,3.9-2.8l7.1,21.8c-1,0.7-2.6,1.7-4.9,2.9c-2.2,1.2-5,2.4-8.3,3.5
			c-3.3,1.1-7.2,2-11.6,2.8c-4.5,0.8-9.3,1.2-14.7,1.2c-6.8,0-13.2-1.1-19.3-3.2c-6.1-2.2-11.5-5.5-16.1-10
			c-4.6-4.5-8.3-10.2-11-16.9c-2.7-6.8-4.1-14.8-4.1-24.2c0-8.8,1.3-16.5,3.8-23.3c2.5-6.8,6-12.4,10.4-17
			c4.4-4.6,9.5-8.1,15.3-10.6c5.8-2.4,12-3.7,18.7-3.7c6.6,0,12.7,1.1,18.3,3.2c5.6,2.2,10.5,5.5,14.6,10c4.1,4.5,7.3,10.4,9.7,17.6
			c2.4,7.2,3.6,15.7,3.6,25.7v4.7H754.5z M794.9,596.7c-0.3-3.6-1.1-6.7-2.3-9.4c-1.2-2.7-2.7-4.8-4.6-6.5c-1.8-1.7-3.8-2.9-5.9-3.7
			c-2.1-0.8-4.2-1.2-6.4-1.2c-4.6,0-9,1.7-13.2,5.2c-4.2,3.5-6.7,8.6-7.4,15.5H794.9z"/>
	</g>
</g>
</svg>
