<?xml version="1.0" encoding="utf-8"?>
<!-- Generator: Adobe Illustrator 24.1.0, SVG Export Plug-In . SVG Version: 6.00 Build 0)  -->
<svg version="1.1" id="Capa_1" xmlns="http://www.w3.org/2000/svg" xmlns:xlink="http://www.w3.org/1999/xlink" x="0px" y="0px"
	 viewBox="0 0 210 61" style="enable-background:new 0 0 210 61;" xml:space="preserve">
<style type="text/css">
	.st0{fill:#00B2A9;}
</style>
<g>
	<path class="st0" d="M79.6,8.3c-2.1,7.5-5.4,20-8.7,30.8c-1.8,6-3.8,12.6-5.1,15.6c-1.5,3.5-5,5.8-9,5.8s-7.5-2.3-9-5.8
		c-1.6-3.9-5-15-6.3-19c-0.5-1.6-1.9-2.5-3.7-2.5c-1.7,0-3.1,0.9-3.7,2.5c-1.4,4-3.8,15-5.3,19c-1.3,3.4-4.5,5.8-8.3,5.8
		S14,58,12.6,54.7c-0.8-1.9-11.7-29-12.2-30.3c-0.3-0.9-0.7-1.8-0.7-2.8c0-3.3,2.6-6,5.9-6c2.7,0,5,1.8,5.6,4.2
		c1.3,4.9,5.2,21.4,5.7,23.1c0.4,1.7,2,3,3.8,3s3.4-1.3,3.8-3c-0.1,0.3,6.5-25.6,7.8-29.6c0.8-2.4,3-4.2,5.6-4.2s4.9,1.8,5.6,4.2
		l0,0c0.8,2.3,6.9,23,8.8,29.6c0.5,1.7,2,3,3.8,3c1.8,0,3.4-1.3,3.8-3C62,33.7,68,5.2,68,5.2c0.5-2.8,2.9-5,5.8-5
		c3.3,0,5.9,2.7,5.9,6C79.9,7,79.8,7.6,79.6,8.3"/>
	<path class="st0" d="M93.7,9.2c-5,0-5,4.5-5,8.1v35.1c0,3.6,0,8,5,8c5,0,5-4.5,5-8V17.3C98.7,13.9,98.7,9.2,93.7,9.2"/>
	<path class="st0" d="M185.3,9.3c-14.5,0-24.4,10.6-24.4,25.5c0,15.7,9.4,25.3,24.4,25.3c15.4,0,24.4-9.5,24.4-25.3
		C209.7,19.6,199.9,9.3,185.3,9.3 M185.3,17.7c7.2,0,14.5,6.5,14.5,17.3c0,12.6-7.8,17.1-14.5,17.1s-14.5-4.5-14.5-17.1
		C170.7,24.1,178.1,17.7,185.3,17.7z"/>
	<path class="st0" d="M146.7,58c0.4,0.5,0.8,0.9,1.2,1.3c2,2,5.5,1.4,7.3-0.9c1.6-2,1.4-4.9-0.2-6.8c0,0-13.8-15.1-14.3-15.6
		c-0.5-0.5-1-1.5-1-2.7s0.8-2.4,1.3-2.9c5.4-6.3,9.9-11.5,9.9-11.5c2-2.3,4.7-5.4,1.4-8.4c-3.4-3.1-6-0.1-8.1,2.3
		c0,0-4.3,4.9-5.1,5.8c-0.8,0.9-2.3,2.6-2.3,2.6c-3.2,3.5-5,5.2-6.6,6c-0.9,0.5-2.5,0.9-4.4-0.4c-0.7-0.6-1.4-1.6-1.4-3.2v-6.4
		c0-3.4,0-8.1-5.1-8.1s-5.1,4.5-5.1,8.1v35c0,3.4,0,8.1,5.1,8.1s5.1-4.5,5.1-8.1c0,0,0-7.1,0-8.4c0-2.1,0-3.6,0.8-4.6
		c1-1.3,2.2-1.5,3.4-1.5c1.3,0,2.4,1,3.2,1.9c0.8,1,3.6,4.3,6.2,7.4L146.7,58z"/>
</g>
</svg>
