<?xml version="1.0" encoding="utf-8"?>
<!-- Generator: Adobe Illustrator 24.1.0, SVG Export Plug-In . SVG Version: 6.00 Build 0)  -->
<svg version="1.1" id="Layer_1" xmlns="http://www.w3.org/2000/svg" xmlns:xlink="http://www.w3.org/1999/xlink" x="0px" y="0px"
	 viewBox="0 0 60 60" style="enable-background:new 0 0 60 60;" xml:space="preserve">
<style type="text/css">
	.st0{fill-rule:evenodd;clip-rule:evenodd;fill:#FF6700;}
	.st1{fill:#FFFFFF;}
</style>
<g transform="translate(23 23)">
	<g transform="matrix(.35278 0 0 -.35278 -196.116 155.45)">
		<path class="st0" d="M654.3,335.8H497.2c-3.6,0-6.5,2.9-6.5,6.5v157.2c0,3.6,2.9,6.5,6.5,6.5c0,0,0,0,0,0h157.2
			c3.6,0,6.5-2.9,6.5-6.5c0,0,0,0,0,0V342.2C660.8,338.7,657.9,335.8,654.3,335.8"/>
		<g>
			<path class="st1" d="M624.1,452.3h-13.4c-0.6,0-1-0.4-1-1c0,0,0,0,0,0v-61c0-0.6,0.5-1,1-1h13.4c0.6,0,1,0.5,1,1v61
				C625.1,451.9,624.6,452.3,624.1,452.3 M578.4,452.3h-51c-0.6,0-1-0.4-1-1c0,0,0,0,0,0v-61c0-0.6,0.5-1,1-1h13.4c0.6,0,1,0.5,1,1
				v47.9c0,0.6,0.5,1,1,1h28.8c8.1,0,10.4-6.2,10.4-10.2v-38.7c0-0.6,0.5-1,1-1h13.4c0.6,0,1,0.5,1,1v43.3c0,3.6-0.4,8.7-5,13.2
				C587.7,451.5,583.3,452.3,578.4,452.3"/>
			<path class="st1" d="M569,428H555c-0.6,0-1-0.5-1-1v-36.7c0-0.6,0.5-1,1-1H569c0.6,0,1,0.5,1,1V427
				C570.1,427.6,569.6,428,569,428"/>
		</g>
	</g>
</g>
</svg>
